<svg width="24" height="24" viewBox="0 0 24 24" fill="none" xmlns="http://www.w3.org/2000/svg">
<path d="M17.5 10H15.8L12.1 20.5H13.8L14.7 17.9H18.6L19.5 20.5H21.2L17.5 10ZM15.3 16.3L16.7 12.3L18.1 16.3H15.3ZM10.5 12.5C12.1 10.7 13.4 8.9 14.2 6.8H16V5.2H10.2V3H8.8V5.2H3V6.7H12.6C11.9 8.3 10.8 9.8 9.5 11.3C8.6 10.2 7.8 9 7.2 8H5.6C6.2 9.4 7.3 10.9 8.5 12.4L6.1 14.8C5.8 15.2 5.4 15.6 5 16L6 17L7.2 15.8C8 15 8.8 14.3 9.5 13.5C10.3 14.4 11.2 15.2 12 16L12.6 14.5C11.9 13.9 11.2 13.2 10.5 12.5Z" fill="#400708"/>
</svg>
