<svg width="492" height="129" viewBox="0 0 492 129" fill="none" xmlns="http://www.w3.org/2000/svg">
<path d="M82.048 14.976C85.8026 15.488 89.1306 16.5547 92.032 18.176C94.9333 19.712 97.3653 21.632 99.328 23.936C101.291 26.24 102.784 28.8 103.808 31.616C104.832 34.3467 105.344 37.2053 105.344 40.192C105.344 44.1173 104.619 47.7867 103.168 51.2C101.803 54.528 99.7973 57.472 97.152 60.032C94.592 62.5067 91.392 64.4693 87.552 65.92C83.7973 67.3707 79.488 68.096 74.624 68.096C68.9066 68.096 64.3413 66.688 60.928 63.872C55.808 75.392 49.7066 83.7974 42.624 89.088C35.6266 94.3787 27.9466 97.024 19.584 97.024C16.3413 97.024 13.4826 96.512 11.008 95.488C8.61864 94.3787 6.57064 92.9707 4.86398 91.264C3.24264 89.5574 2.00531 87.5947 1.15198 85.376C0.383976 83.072 -2.43187e-05 80.7253 -2.43187e-05 78.336C-2.43187e-05 76.7147 0.213309 75.0933 0.639976 73.472C1.15198 71.7653 1.79198 70.1867 2.55998 68.736C3.41331 67.2 4.43731 65.8347 5.63198 64.64C6.82664 63.36 8.14931 62.3787 9.59998 61.696C10.4533 61.5253 10.7093 61.824 10.368 62.592C7.89331 63.9573 6.01598 65.792 4.73598 68.096C3.54131 70.4 2.94398 72.8747 2.94398 75.52C2.94398 77.9947 3.37064 80.2987 4.22398 82.432C5.16264 84.5654 6.48531 86.4427 8.19198 88.064C9.89864 89.6854 11.9893 90.9654 14.464 91.904C16.9386 92.7574 19.7973 93.184 23.04 93.184C26.9653 93.184 30.5493 92.672 33.792 91.648C37.12 90.624 40.1493 88.8747 42.88 86.4C45.696 83.84 48.2986 80.4694 50.688 76.288C53.0773 72.0213 55.3813 66.688 57.6 60.288C56.6613 58.9227 55.8506 57.4293 55.168 55.808C54.4853 54.1867 53.9306 52.3947 53.504 50.432C53.5893 50.0907 53.76 49.8773 54.016 49.792C54.272 49.6213 54.4853 49.664 54.656 49.92C55.424 53.248 56.6186 56.0213 58.24 58.24C59.0933 55.5947 59.9893 52.6507 60.928 49.408C62.8906 42.1547 65.024 35.9253 67.328 30.72C69.7173 25.4293 72.5333 21.12 75.776 17.792C75.264 17.7067 74.7093 17.664 74.112 17.664C73.6 17.664 73.0453 17.664 72.448 17.664C63.4026 17.664 55.7226 19.84 49.408 24.192C43.1786 28.544 38.8266 34.9867 36.352 43.52C36.096 43.776 35.84 43.8187 35.584 43.648C35.328 43.392 35.2 42.9227 35.2 42.24C38.1013 33.7067 42.9226 26.9653 49.664 22.016C56.4053 17.0667 65.3226 14.592 76.416 14.592C76.928 14.592 77.3973 14.592 77.824 14.592C78.336 14.592 78.8053 14.6347 79.232 14.72C82.1333 12.5013 85.504 10.9227 89.344 9.98402C89.7706 9.98402 89.984 10.112 89.984 10.368C90.0693 10.624 89.8986 10.8373 89.472 11.008C88.0213 11.4347 86.6986 11.9893 85.504 12.672C84.3093 13.2693 83.1573 14.0373 82.048 14.976ZM75.904 65.536C79.488 65.536 82.7306 64.9387 85.632 63.744C88.6186 62.5493 91.136 60.928 93.184 58.88C95.3173 56.7467 96.9386 54.272 98.048 51.456C99.1573 48.64 99.712 45.6107 99.712 42.368C99.712 39.3813 99.2426 36.5653 98.304 33.92C97.4506 31.1893 96.128 28.8 94.336 26.752C92.6293 24.6187 90.4533 22.8267 87.808 21.376C85.248 19.84 82.304 18.7733 78.976 18.176C76.672 20.992 74.624 24.4907 72.832 28.672C71.04 32.8533 69.4186 37.7173 67.968 43.264C66.176 50.0907 64.128 56.2774 61.824 61.824C65.2373 64.2987 69.9306 65.536 75.904 65.536ZM128.922 98.688C123.973 98.688 119.237 97.536 114.714 95.232C110.277 92.8427 106.65 89.3014 103.834 84.608C101.018 79.8293 99.61 73.9413 99.61 66.944C99.61 59.8613 101.018 53.9307 103.834 49.152C106.65 44.288 110.277 40.6613 114.714 38.272C119.237 35.7973 123.973 34.56 128.922 34.56C133.871 34.56 138.565 35.7973 143.002 38.272C147.525 40.6613 151.194 44.288 154.01 49.152C156.911 53.9307 158.362 59.8613 158.362 66.944C158.362 73.9413 156.911 79.8293 154.01 84.608C151.194 89.3014 147.525 92.8427 143.002 95.232C138.565 97.536 133.871 98.688 128.922 98.688ZM128.922 92.928C134.469 92.928 138.735 90.752 141.722 86.4C144.709 81.9627 146.202 75.4773 146.202 66.944C146.202 58.3253 144.709 51.7547 141.722 47.232C138.735 42.7093 134.469 40.448 128.922 40.448C123.375 40.448 119.109 42.7093 116.122 47.232C113.221 51.7547 111.77 58.3253 111.77 66.944C111.77 75.4773 113.221 81.9627 116.122 86.4C119.109 90.752 123.375 92.928 128.922 92.928ZM169.476 97.024V92.416L178.692 90.752C178.777 87.5094 178.82 84.0107 178.82 80.256C178.905 76.416 178.948 73.0453 178.948 70.144V64C178.948 60.5013 178.905 57.6 178.82 55.296C178.82 52.992 178.735 50.56 178.564 48L168.452 46.848V42.368L186.372 34.56L188.292 35.84L189.7 50.944C191.833 45.824 194.564 41.8133 197.892 38.912C201.305 36.0107 204.719 34.56 208.132 34.56C210.095 34.56 211.929 34.9867 213.636 35.84C215.343 36.6933 216.58 37.8453 217.348 39.296C217.348 45.5253 214.831 48.64 209.796 48.64C208.345 48.64 206.98 48.384 205.7 47.872C204.42 47.2747 203.183 46.464 201.988 45.44L200.452 44.032C197.892 45.9093 195.759 48.2133 194.052 50.944C192.345 53.6747 190.937 56.8747 189.828 60.544V70.144C189.828 72.96 189.828 76.2454 189.828 80C189.913 83.7547 189.999 87.2534 190.084 90.496L200.58 92.416V97.024H169.476ZM246.84 98.688C242.403 98.688 238.861 97.4934 236.216 95.104C233.571 92.7147 232.248 89.0454 232.248 84.096C232.248 82.4747 232.248 80.896 232.248 79.36C232.333 77.7387 232.376 75.6907 232.376 73.216V43.008H221.752V37.376L233.144 35.968L236.472 18.816H244.152L243.384 36.224H260.664V43.008H243.256V82.688C243.256 85.9307 243.896 88.32 245.176 89.856C246.456 91.3067 248.163 92.032 250.296 92.032C251.747 92.032 253.112 91.7334 254.392 91.136C255.757 90.5387 257.251 89.6854 258.872 88.576L261.944 91.904C258.445 96.4267 253.411 98.688 246.84 98.688ZM321.617 3.96801C323.238 3.96801 324.604 4.30934 325.713 4.99201C326.822 5.67468 327.633 6.57068 328.145 7.68002C328.742 8.78934 329.041 10.0267 329.041 11.392C329.041 12.672 328.742 13.952 328.145 15.232C327.974 15.488 327.761 15.5733 327.505 15.488C327.249 15.4027 327.036 15.232 326.865 14.976C326.694 13.2693 325.884 11.776 324.433 10.496C323.068 9.13068 320.892 8.44801 317.905 8.44801C314.662 8.44801 311.548 9.30135 308.561 11.008C305.66 12.7147 302.673 15.7013 299.601 19.968C296.614 24.2347 293.542 29.9947 290.385 37.248C287.313 44.5013 283.985 53.6747 280.401 64.768C282.364 64.6827 284.412 64.64 286.545 64.64C288.764 64.64 291.025 64.64 293.329 64.64C293.756 64.8107 293.926 65.0667 293.841 65.408C293.841 65.664 293.457 65.8773 292.689 66.048C290.556 66.1333 288.422 66.2187 286.289 66.304C284.156 66.3893 281.98 66.5173 279.761 66.688C279.505 67.6267 279.206 68.48 278.865 69.248C275.366 80.4267 271.782 89.7707 268.113 97.28C264.444 104.875 260.689 110.933 256.849 115.456C253.009 120.064 249.126 123.307 245.201 125.184C241.19 127.147 237.137 128.128 233.041 128.128C230.14 128.128 228.092 127.488 226.897 126.208C225.617 124.928 224.977 123.435 224.977 121.728C224.977 120.96 225.148 120.107 225.489 119.168C225.83 118.315 226.257 117.547 226.769 116.864C227.025 116.608 227.281 116.565 227.537 116.736C227.708 116.907 227.793 117.12 227.793 117.376C227.452 118.059 227.324 118.827 227.409 119.68C227.494 120.619 227.878 121.472 228.561 122.24C229.158 123.093 230.097 123.776 231.377 124.288C232.572 124.885 234.15 125.184 236.113 125.184C238.161 125.184 240.209 124.928 242.257 124.416C244.22 123.904 246.225 122.923 248.273 121.472C250.236 120.107 252.241 118.144 254.289 115.584C256.252 113.024 258.3 109.653 260.433 105.472C262.566 101.376 264.785 96.384 267.089 90.496C269.393 84.608 271.782 77.6107 274.257 69.504C274.428 69.0773 274.556 68.6933 274.641 68.352C274.726 67.9253 274.854 67.4987 275.025 67.072C273.574 67.2427 272.124 67.456 270.673 67.712C269.222 67.8827 267.772 68.1387 266.321 68.48C265.894 68.3947 265.766 68.1813 265.937 67.84C266.193 67.4987 266.577 67.1573 267.089 66.816C267.686 66.4747 268.369 66.176 269.137 65.92C269.905 65.5787 270.63 65.3653 271.313 65.28C271.996 65.1947 272.678 65.152 273.361 65.152C274.129 65.0667 274.897 64.9813 275.665 64.896C278.737 55.68 282.022 47.36 285.521 39.936C289.105 32.4267 292.86 26.0267 296.785 20.736C300.71 15.36 304.764 11.2213 308.945 8.32001C313.126 5.41868 317.35 3.96801 321.617 3.96801ZM317.297 98.688C312.348 98.688 307.612 97.536 303.089 95.232C298.652 92.8427 295.025 89.3014 292.209 84.608C289.393 79.8293 287.985 73.9413 287.985 66.944C287.985 59.8613 289.393 53.9307 292.209 49.152C295.025 44.288 298.652 40.6613 303.089 38.272C307.612 35.7973 312.348 34.56 317.297 34.56C322.246 34.56 326.94 35.7973 331.377 38.272C335.9 40.6613 339.569 44.288 342.385 49.152C345.286 53.9307 346.737 59.8613 346.737 66.944C346.737 73.9413 345.286 79.8293 342.385 84.608C339.569 89.3014 335.9 92.8427 331.377 95.232C326.94 97.536 322.246 98.688 317.297 98.688ZM317.297 92.928C322.844 92.928 327.11 90.752 330.097 86.4C333.084 81.9627 334.577 75.4773 334.577 66.944C334.577 58.3253 333.084 51.7547 330.097 47.232C327.11 42.7093 322.844 40.448 317.297 40.448C311.75 40.448 307.484 42.7093 304.497 47.232C301.596 51.7547 300.145 58.3253 300.145 66.944C300.145 75.4773 301.596 81.9627 304.497 86.4C307.484 90.752 311.75 92.928 317.297 92.928ZM312.433 23.296C316.017 17.2373 319.814 11.2213 323.825 5.24802C325.02 3.28535 326.172 1.92002 327.281 1.15202C328.476 0.384015 329.628 1.52588e-05 330.737 1.52588e-05C331.932 1.52588e-05 333.041 0.384015 334.065 1.15202C335.089 1.92002 335.601 3.15735 335.601 4.86401C335.601 5.71735 335.302 6.69868 334.705 7.80801C334.193 8.83201 333.041 10.1973 331.249 11.904C328.604 14.2933 326.001 16.64 323.441 18.944C320.966 21.1627 318.406 23.424 315.761 25.728L312.433 23.296ZM354.425 97.024V92.416L364.665 90.624C364.75 87.1254 364.793 83.712 364.793 80.384C364.878 76.9707 364.921 73.5574 364.921 70.144V13.952L354.425 12.672V8.19202L374.393 2.43201L376.185 3.45602L375.673 21.632V70.144C375.673 73.5574 375.673 76.9707 375.673 80.384C375.758 83.7973 375.844 87.2107 375.929 90.624L386.169 92.416V97.024H354.425ZM393.83 97.024V92.416L403.43 90.624C403.515 87.3814 403.558 83.8827 403.558 80.128C403.643 76.288 403.686 72.96 403.686 70.144V64.128C403.686 60.6294 403.643 57.728 403.558 55.424C403.558 53.0347 403.473 50.56 403.302 48L393.062 46.848V42.368L412.774 34.56L414.694 35.84L414.31 53.248V70.144C414.31 72.96 414.31 76.288 414.31 80.128C414.395 83.8827 414.481 87.3814 414.566 90.624L423.526 92.416V97.024H393.83ZM408.934 20.48C406.545 20.48 404.497 19.712 402.79 18.176C401.169 16.64 400.358 14.6773 400.358 12.288C400.358 9.81334 401.169 7.85068 402.79 6.40002C404.497 4.86402 406.545 4.09602 408.934 4.09602C411.323 4.09602 413.329 4.86402 414.95 6.40002C416.657 7.85068 417.51 9.81334 417.51 12.288C417.51 14.6773 416.657 16.64 414.95 18.176C413.329 19.712 411.323 20.48 408.934 20.48ZM462.547 98.688C457.598 98.688 452.862 97.536 448.339 95.232C443.902 92.8427 440.275 89.3014 437.459 84.608C434.643 79.8293 433.235 73.9413 433.235 66.944C433.235 59.8613 434.643 53.9307 437.459 49.152C440.275 44.288 443.902 40.6613 448.339 38.272C452.862 35.7973 457.598 34.56 462.547 34.56C467.496 34.56 472.19 35.7973 476.627 38.272C481.15 40.6613 484.819 44.288 487.635 49.152C490.536 53.9307 491.987 59.8613 491.987 66.944C491.987 73.9413 490.536 79.8293 487.635 84.608C484.819 89.3014 481.15 92.8427 476.627 95.232C472.19 97.536 467.496 98.688 462.547 98.688ZM462.547 92.928C468.094 92.928 472.36 90.752 475.347 86.4C478.334 81.9627 479.827 75.4773 479.827 66.944C479.827 58.3253 478.334 51.7547 475.347 47.232C472.36 42.7093 468.094 40.448 462.547 40.448C457 40.448 452.734 42.7093 449.747 47.232C446.846 51.7547 445.395 58.3253 445.395 66.944C445.395 75.4773 446.846 81.9627 449.747 86.4C452.734 90.752 457 92.928 462.547 92.928Z" fill="#400708"/>
</svg>
