<svg width="50" height="50" viewBox="0 0 50 50" fill="none" xmlns="http://www.w3.org/2000/svg">
<path d="M20.4212 15.3033C19.1831 14.7945 18.4576 13.4426 18.3891 12.1448C18.373 11.755 18.3973 11.3512 18.5557 10.9867C18.7393 10.5603 19.1276 10.2927 19.599 10.3178C19.9577 10.3348 20.2914 10.4798 20.5948 10.66C21.2785 11.0742 21.8783 11.6094 22.4471 12.1632C22.8547 12.5581 23.2555 12.9723 23.5437 13.4685C23.7143 13.7668 23.8426 14.1025 23.8831 14.4471C23.9622 15.1146 23.7229 15.7964 23.2884 16.3008C22.8206 16.8508 22.0535 17.2238 21.3294 17.0283C20.8286 16.8839 20.3924 16.4367 20.3579 15.9039C20.3565 15.8862 20.3557 15.852 20.3564 15.8341C20.3566 15.7876 20.362 15.7415 20.3684 15.6961C20.3656 15.7883 20.3758 15.8797 20.3969 15.9677C20.5173 16.4415 20.9565 16.8022 21.4333 16.8738C22.2682 16.9777 23.0348 16.3474 23.3496 15.6112C23.5103 15.2438 23.5741 14.8292 23.4995 14.4352C23.4922 14.398 23.4832 14.3483 23.473 14.3126C23.4633 14.276 23.4499 14.2271 23.4393 14.1914C23.2117 13.4984 22.6738 12.9671 22.1561 12.4646C21.7646 12.0888 21.3625 11.716 20.9327 11.3895C20.6525 11.1797 20.3652 10.9697 20.0448 10.8273C19.2906 10.4957 18.8552 10.8409 18.7329 11.6132C18.531 13.0142 19.1569 14.5926 20.4212 15.3035V15.3033Z" fill="#400708"/>
<path d="M22.1385 15.482C21.8469 15.4673 21.4835 15.4658 21.3247 15.756C21.2207 15.9471 21.2143 16.1643 21.1983 16.3862C21.1879 16.5553 21.1859 16.7297 21.2359 16.8885C21.2987 17.1095 21.522 17.3281 21.6738 17.5099C21.8471 17.7087 22.0283 17.9079 22.223 18.0815C22.888 18.6661 23.7534 18.9517 24.5617 19.2892C25.638 19.7165 26.7281 20.1474 27.8552 20.416C28.3326 20.521 28.8793 20.6638 29.3531 20.5223C29.6523 20.4313 29.9358 20.1841 29.9734 19.865C29.9849 19.7289 29.951 19.613 29.9158 19.4723C29.8625 19.2687 29.825 19.0646 29.8947 18.853C29.9307 18.7406 30.0121 18.6336 30.1135 18.5706C30.2056 18.5102 30.2997 18.4803 30.387 18.4289C30.5684 18.316 30.6376 18.0803 30.5934 17.8717C30.5439 17.6225 30.3202 17.4934 30.0798 17.4609C29.907 17.4358 29.7305 17.4488 29.5552 17.4678C29.3306 17.4906 29.0971 17.5169 28.8742 17.4638C28.8298 17.4536 28.7867 17.4384 28.7448 17.4219C29.1983 17.5398 29.6353 17.2875 30.0943 17.3199C30.2639 17.3285 30.4458 17.3814 30.5806 17.4921C30.8521 17.7151 30.8953 18.1329 30.7246 18.4311C30.6777 18.5145 30.6085 18.5897 30.5294 18.6452C30.4328 18.7145 30.3164 18.7513 30.2352 18.8294C30.1559 18.9151 30.1504 19.0302 30.1645 19.1496C30.1754 19.2313 30.1992 19.306 30.2234 19.3865C30.331 19.7102 30.3635 19.9853 30.1891 20.3012C30.0332 20.5794 29.7684 20.7822 29.4693 20.8842C28.9553 21.0542 28.407 20.9523 27.8975 20.8466C26.6919 20.5923 25.5418 20.1337 24.4098 19.6577C23.572 19.2895 22.6816 18.9559 22.0148 18.3039C21.7492 18.0424 21.5312 17.7523 21.3077 17.4579C21.1194 17.21 20.9966 16.9733 21.0096 16.6493C21.0116 16.5534 21.0223 16.4605 21.0353 16.3698C21.0628 16.1875 21.0887 15.9978 21.1656 15.827C21.3531 15.4061 21.7437 15.4081 22.1387 15.4822L22.1385 15.482Z" fill="#400708"/>
<path d="M30.2497 17.4199C30.4986 17.4434 30.7969 17.4135 30.9977 17.2565C31.0137 17.243 31.0331 17.2263 31.0447 17.2103C31.0621 17.185 31.0745 17.1664 31.0611 17.1421C31.0494 17.1204 31.0167 17.0794 30.9997 17.0477C30.9596 16.9733 30.9522 16.8846 30.9492 16.8055C30.941 16.6296 30.9354 16.4483 30.9927 16.2767C31.076 16.0259 31.2561 15.8661 31.5172 15.8311C31.5749 15.821 31.6227 15.8141 31.6603 15.8026C31.7809 15.7682 31.9116 15.674 32.0152 15.5893C32.199 15.4363 32.2444 15.3142 32.1556 15.0785C32.0027 14.6824 31.7909 14.3186 31.5904 13.9409C31.2664 13.3341 30.965 12.6576 31.0081 11.9504C31.021 11.7332 31.069 11.5168 31.1365 11.3105C31.3944 10.5316 31.7982 9.99753 31.7216 9.15352C31.7211 9.09831 31.7219 9.04271 31.7276 8.98763C31.7329 8.93255 31.7424 8.87826 31.7549 8.825C31.7542 8.87982 31.756 8.93412 31.7611 8.98763C31.7832 9.20495 31.8594 9.41758 31.8572 9.6405C31.8572 9.67787 31.8596 9.73372 31.857 9.76771C31.8556 9.79167 31.8508 9.86914 31.8491 9.89492C31.8396 9.97357 31.8275 10.068 31.8116 10.1454C31.7296 10.5733 31.5579 10.9797 31.4549 11.401C31.4306 11.4982 31.4092 11.6035 31.3969 11.7027C31.3866 11.7646 31.3842 11.8275 31.3785 11.8891C31.378 11.9079 31.3773 11.9447 31.377 11.9633C31.376 12.0322 31.3809 12.1178 31.3884 12.1863C31.3922 12.2199 31.3967 12.2647 31.4026 12.2979C31.5552 13.2628 32.2228 14.0372 32.5335 14.9516C32.5999 15.1474 32.6189 15.3878 32.5105 15.5772C32.4275 15.7281 32.301 15.8339 32.165 15.9259C31.9853 16.0494 31.7866 16.138 31.5604 16.1462C31.5099 16.1508 31.4699 16.1565 31.4398 16.1672C31.3616 16.1908 31.2807 16.2827 31.2434 16.3712C31.1948 16.4822 31.1807 16.6048 31.1707 16.7276C31.1678 16.7895 31.1549 16.8819 31.1655 16.9414C31.169 16.9594 31.1724 16.9706 31.1848 16.994C31.2053 17.0293 31.2409 17.0995 31.2357 17.1543C31.2307 17.254 31.1564 17.3263 31.0784 17.3725C30.8329 17.5148 30.5112 17.5035 30.2496 17.4201L30.2497 17.4199Z" fill="#400708"/>
<path d="M31.7771 15.5983C31.698 15.631 31.6406 15.6751 31.5684 15.7139C31.3921 15.8073 31.1822 15.8388 30.9906 15.8255C30.9486 15.821 30.9104 15.8342 30.8628 15.847C30.8042 15.8625 30.7139 15.8766 30.666 15.826C30.7124 15.7833 30.7118 15.7405 30.7302 15.688C30.7471 15.6314 30.7848 15.5734 30.835 15.5327C31.0065 15.3914 31.2673 15.3716 31.4742 15.4168C31.5865 15.4448 31.719 15.4871 31.7771 15.5982V15.5983Z" fill="#400708"/>
<path d="M30.3555 4.53971C30.4271 4.6086 30.4793 4.69492 30.5333 4.77721C30.6363 4.93893 30.7293 5.11471 30.8195 5.28386C31.4008 6.29727 31.9145 7.4918 31.781 8.68607C31.7697 8.75547 31.7581 8.8362 31.743 8.90469C31.729 8.8569 31.7176 8.80925 31.7061 8.76198C31.6512 8.52956 31.5883 8.2987 31.5204 8.07018C31.2565 7.17735 30.8788 6.32956 30.5818 5.4444C30.519 5.24154 30.4729 5.02852 30.4258 4.82201C30.4036 4.72943 30.3865 4.63021 30.3559 4.53971H30.3555Z" fill="#400708"/>
<path d="M30.4111 4.31562C31.1672 4.8207 31.6689 5.64674 31.8991 6.51654C32.079 7.22969 32.0745 7.98034 31.9145 8.69518C31.8754 8.8582 31.8292 9.0194 31.7671 9.175C31.7568 8.90286 31.7508 8.62591 31.7336 8.3543C31.6469 6.76484 31.3099 5.63789 30.4109 4.31575L30.4111 4.31562Z" fill="#400708"/>
<path d="M30.4846 4.36667C31.2449 5.08242 32.0096 5.98425 32.2437 7.02773C32.3953 7.72214 32.2964 8.44688 32.0766 9.11367C31.994 9.35521 31.8887 9.57787 31.7736 9.80339C31.7862 9.67839 31.8052 9.55508 31.8238 9.43255C31.8723 9.13294 31.9031 8.82656 31.922 8.52474C31.949 8.053 31.9422 7.57865 31.834 7.1194C31.5935 6.11719 30.9454 5.27669 30.4848 4.36693L30.4846 4.36667Z" fill="#400708"/>
<path d="M30.3309 4.33529C30.6891 6.41458 30.8036 7.997 29.4263 9.75169C28.3829 11.075 26.7961 11.9564 25.1194 12.1385C23.9397 12.2687 22.7736 12.021 21.6008 12.0089C20.9137 12.0005 20.2243 12.0607 19.5479 12.1848C19.0845 12.2681 18.6147 12.3919 18.1313 12.3789C17.5805 12.3651 17.0523 12.1906 16.5659 11.9443C16.0902 11.6949 15.6655 11.3493 15.3134 10.9445L15.1999 10.8077C15.1806 10.7853 15.1632 10.7612 15.1453 10.7375L15.0923 10.6663C15.0746 10.6426 15.0568 10.6191 15.0395 10.5951L14.99 10.5214L14.9406 10.4478C14.8875 10.3684 14.8488 10.2953 14.8029 10.221L14.7204 10.0647C14.6159 9.85378 14.5267 9.63607 14.4609 9.41159C14.6574 9.89466 14.9458 10.3402 15.2984 10.723C15.6464 11.0997 16.059 11.4249 16.5163 11.6583C17.0152 11.9079 17.574 12.0785 18.1327 12.073C18.5876 12.0655 19.0283 11.9335 19.4789 11.838C20.1764 11.6898 20.8883 11.6124 21.6021 11.6092C22.7616 11.6005 23.9216 11.8415 25.0746 11.7221C26.4251 11.5792 27.7172 10.9702 28.7023 10.0375C29.378 9.39401 29.9315 8.59687 30.1973 7.69661C30.5113 6.60664 30.4104 5.45495 30.3303 4.33516L30.3309 4.33529Z" fill="#400708"/>
<path d="M30.2168 4.2806C30.0103 5.16588 30.2113 6.07943 30.0426 6.97096L30.0247 7.05338L30.0068 7.13581C29.9715 7.27187 29.9297 7.40716 29.879 7.53737C29.7198 7.95039 29.4915 8.33503 29.2638 8.71107C28.7454 9.56276 28.1393 10.4056 27.2831 10.9482C26.2268 11.6237 24.9165 11.6845 23.7017 11.6418C23.0475 11.6191 22.3962 11.5827 21.7435 11.5424C20.6756 11.4749 19.5568 11.3846 18.4906 11.2878C17.8604 11.2178 17.1411 11.2083 16.5323 11.009C15.6841 10.7232 15.0456 10.0561 14.4613 9.41172C14.6242 9.55612 14.7852 9.70234 14.9512 9.84206C15.2784 10.1202 15.6237 10.3846 16.0049 10.5806C16.5875 10.8961 17.2116 10.9277 17.8604 10.952C19.5645 11.0306 21.3642 11.134 23.0656 11.1995C24.276 11.2443 25.535 11.3182 26.6663 10.8289C27.6918 10.3777 28.3991 9.45638 29.0068 8.54753C29.5367 7.75664 29.8775 7.19062 29.9506 6.2168C30.0115 5.57135 30.0004 4.90039 30.2167 4.28047L30.2168 4.2806Z" fill="#400708"/>
<path d="M29.9688 4.7763C29.9115 4.91055 29.8565 5.04648 29.7934 5.178C29.7701 5.225 29.693 5.3849 29.6732 5.42474C29.6122 5.53594 29.5513 5.65313 29.4888 5.76276C29.4466 5.83229 29.3587 5.9806 29.3188 6.04609C29.2826 6.10169 29.1764 6.26354 29.1372 6.32266C29.0814 6.40651 29.0039 6.50977 28.9451 6.59271C28.8712 6.69661 28.7533 6.84206 28.6749 6.94284C28.6324 6.99258 28.5056 7.14388 28.4605 7.19661C28.378 7.29023 28.2837 7.3901 28.1995 7.4832C27.8294 7.86797 27.4272 8.23333 27.0005 8.55378C26.8993 8.63177 26.7477 8.74141 26.6408 8.81497C26.5867 8.85326 26.5122 8.90547 26.4569 8.93997C26.3913 8.98177 26.2397 9.0819 26.1747 9.11979C25.0607 9.79987 23.7595 10.0493 22.5039 10.3259C21.9418 10.4507 21.3802 10.5824 20.8344 10.7661C20.7695 10.7875 20.6905 10.8151 20.6152 10.8337C20.4648 10.8708 20.3117 10.8893 20.1582 10.8941C19.4883 10.9092 18.8299 10.7229 18.2273 10.4492C18.2975 10.4691 18.368 10.4879 18.4384 10.5061C18.6491 10.5589 18.8632 10.6023 19.0775 10.6344C19.4956 10.6949 19.9316 10.7211 20.3462 10.6357C20.4135 10.6215 20.4793 10.6034 20.5435 10.5831C20.6316 10.5538 20.7466 10.5025 20.8393 10.4647C21.0111 10.3966 21.1853 10.3336 21.3595 10.2743C22.9176 9.75065 24.5533 9.58919 25.9648 8.76849C26.9167 8.2026 27.7945 7.50221 28.5462 6.68724C29.0882 6.10534 29.5608 5.45898 29.9691 4.77669L29.9688 4.7763Z" fill="#400708"/>
<path d="M29.7742 5.14948C29.1396 5.53268 28.5717 5.99935 28.0341 6.50339C27.8814 6.64831 27.7397 6.79583 27.5943 6.94974C27.2562 7.30391 26.8357 7.73737 26.4919 8.09167C26.0461 8.53581 25.5935 9.07096 25.0487 9.39922C24.5491 9.70521 24.0029 9.88646 23.438 9.99766C23.1693 10.0553 22.869 10.1444 22.6025 10.219C22.1931 10.3307 21.7698 10.4467 21.3419 10.4462C21.8617 10.3305 22.3375 10.0982 22.8297 9.90182C23.0049 9.83138 23.1818 9.76315 23.3629 9.7082C23.5854 9.64154 23.8098 9.57057 24.0245 9.48203C24.4944 9.29336 24.9353 9.03724 25.3051 8.68997C25.606 8.40859 25.8988 8.09036 26.1967 7.79922C26.5741 7.42578 26.957 7.05807 27.3473 6.69831C27.5035 6.5543 27.666 6.40651 27.8337 6.27383C28.422 5.81159 29.0641 5.39518 29.7742 5.14935V5.14948Z" fill="#400708"/>
<path d="M30.0971 4.66107C29.0152 5.03125 28.0092 5.57813 27.1548 6.33099C26.7272 6.70951 26.3413 7.13125 25.921 7.52083C25.4219 7.97904 24.8708 8.3931 24.2918 8.74518C24.1781 8.81628 24.0289 8.89544 23.9124 8.96367C23.8777 8.98372 23.8195 9.01328 23.7835 9.03216L23.5241 9.16641C23.3979 9.22813 23.2547 9.29141 23.127 9.35156C22.9956 9.40482 22.853 9.46732 22.7219 9.51914C22.6484 9.54596 22.4151 9.63281 22.3447 9.65794C22.318 9.66719 22.1991 9.70404 22.1706 9.71341C21.9841 9.7776 21.7299 9.84414 21.5388 9.89648C21.4885 9.90859 21.3754 9.93372 21.325 9.94557C21.1237 9.9944 20.9188 10.0268 20.7152 10.0643C20.6737 10.0704 20.6436 10.074 20.6065 10.0793C18.6404 10.3736 16.5704 10.0039 14.8434 9.01771C14.5105 8.82656 14.1891 8.61263 13.8876 8.37526C13.8113 8.31758 13.7387 8.25495 13.665 8.19414C13.9846 8.40417 14.3138 8.59648 14.653 8.76706C16.7538 9.83099 19.2332 10.0866 21.5036 9.47331C21.6017 9.44544 21.8151 9.38893 21.9077 9.35703C21.9904 9.32969 22.1254 9.28711 22.2078 9.26003C22.2733 9.23529 22.5004 9.15339 22.5699 9.12773C22.6956 9.07826 22.8336 9.01953 22.9595 8.96862C23.0411 8.93138 23.2578 8.83164 23.3419 8.7931C23.4264 8.74961 23.6365 8.64766 23.7177 8.60313C24.2938 8.29466 24.8483 7.93268 25.3609 7.52708C25.9211 7.0849 26.4182 6.56445 26.9781 6.11953C27.8858 5.40299 28.9675 4.90286 30.097 4.66107H30.0971Z" fill="#400708"/>
<path d="M13.7665 8.28086C13.4883 7.58281 13.7447 6.81589 13.9612 6.1362C14.3659 4.90391 15.0754 3.77813 15.9871 2.8526C16.8615 1.96628 17.9212 1.26003 19.0802 0.803125C20.8217 0.117188 22.7686 1.63913e-07 24.5919 0.402604C26.3199 0.780599 27.9353 1.64622 29.2116 2.86901C29.5053 3.14792 29.7882 3.45521 30.0426 3.77044C30.1858 3.94766 30.3309 4.14284 30.4608 4.32982C29.8589 3.62096 29.1783 2.98568 28.4249 2.45664C28.3539 2.40547 28.2134 2.30925 28.1402 2.26198C28.096 2.23268 28.0397 2.19453 27.996 2.16784C27.1993 1.66159 26.3333 1.2612 25.4284 0.994662C23.4409 0.408203 21.2577 0.43112 19.3103 1.15964C17.174 1.95755 15.3607 3.58672 14.3645 5.64271C14.2753 5.8224 14.197 6.00833 14.1208 6.19414C14.0247 6.43503 13.929 6.67852 13.8526 6.92487C13.7174 7.36029 13.6312 7.83516 13.7665 8.28099V8.28086Z" fill="#400708"/>
<path d="M13.9061 8.36888C13.7999 7.25443 14.3819 6.22474 14.9625 5.31862C15.1719 4.99714 15.3809 4.67122 15.6232 4.37344C16.0375 3.8556 16.5257 3.39427 17.0495 2.9888C18.3905 1.97044 19.9676 1.20143 21.6526 0.99935C23.332 0.802865 25.0306 1.13516 26.6199 1.653C27.2464 1.86406 27.8594 2.13138 28.412 2.4974C29.1467 2.9793 29.7359 3.64662 30.2982 4.31146C29.6775 3.71836 29.051 3.10026 28.3029 2.67331C27.278 2.08477 26.1111 1.80313 24.9607 1.57318C23.8883 1.37292 22.7885 1.27878 21.7033 1.41393C21.1533 1.48229 20.6089 1.61315 20.0852 1.79453C18.7335 2.27357 17.4626 3.02201 16.4069 3.9918C16.0163 4.35495 15.665 4.75951 15.3547 5.19336C15.0388 5.62435 14.7163 6.06836 14.457 6.53503C14.1426 7.09531 13.9085 7.7194 13.9061 8.36888Z" fill="#400708"/>
<path d="M14.0112 8.44102C14.2736 6.75859 15.6312 4.96992 16.9431 3.92357C17.7816 3.26367 18.7448 2.76927 19.7557 2.43268C22.8969 1.3832 26.5081 1.81719 29.2941 3.61094C29.4642 3.7237 29.6479 3.81237 29.8181 3.92695C29.9682 4.02773 30.1027 4.16484 30.1605 4.33958L30.1811 4.41354C30.1165 4.21745 29.9626 4.07513 29.7845 3.98112C29.6296 3.8957 29.4605 3.83086 29.303 3.74766C28.9224 3.54479 28.5337 3.35729 28.1357 3.19479C27.0155 2.73359 25.8344 2.44154 24.6312 2.32669C22.0307 2.08073 19.2879 2.65143 17.1552 4.2013C15.8449 5.17591 14.4404 6.84857 14.0112 8.44102Z" fill="#400708"/>
<path d="M30.2168 4.2806C30.1794 4.29349 30.1298 4.325 30.0941 4.34323C30.0546 4.36458 30.015 4.38555 29.9754 4.40534C29.9083 4.43945 29.8118 4.48268 29.7428 4.51432C29.7303 4.52031 29.7182 4.52604 29.707 4.53242C29.706 4.53307 29.7043 4.53333 29.7047 4.53451V4.53568C29.7065 4.53542 29.7001 4.53945 29.6969 4.54167C29.6547 4.56953 29.6137 4.59896 29.5734 4.62982C29.4522 4.72266 29.3413 4.82682 29.2273 4.9332C29.1677 4.98828 29.0878 5.0681 29.0215 5.11185C28.9033 5.19453 28.7715 5.2582 28.6286 5.28438C28.5806 5.29284 28.5311 5.29727 28.4823 5.28998C28.5147 5.253 28.5426 5.21797 28.5697 5.18307C28.6454 5.0832 28.7198 4.97669 28.7885 4.87604C28.8375 4.80482 28.8763 4.73464 28.9286 4.66758C29.0934 4.44857 29.3289 4.26589 29.601 4.20104C29.7583 4.17526 30.0844 4.19427 30.2167 4.2806H30.2168Z" fill="#400708"/>
<path d="M13.7665 8.28086C12.8741 7.88737 11.8254 7.87461 10.9372 8.2724C10.0684 8.6806 9.40313 9.44427 8.97865 10.2931C8.07721 12.0816 8.22096 14.4482 9.57604 15.9712C9.81641 16.24 10.0855 16.4668 10.3688 16.6974C11.1069 17.296 11.8552 17.9423 12.8194 18.0699C13.5415 18.1734 14.1807 17.8319 14.7734 17.4508C15.0624 17.2663 15.3512 17.0633 15.4812 16.7346C15.5733 16.5124 15.6195 16.2663 15.713 16.0357C15.8066 15.8022 15.9361 15.6008 16.0181 15.3669C16.2465 14.6768 16.2633 13.5254 15.9393 12.865C16.0056 12.9691 16.0579 13.0826 16.1007 13.199C16.2272 13.5509 16.2828 13.9245 16.301 14.2974C16.3165 14.7044 16.2956 15.1238 16.1667 15.5156C16.0979 15.7186 15.9931 15.9171 15.9245 16.1151C15.8439 16.3464 15.8128 16.5923 15.7241 16.8298C15.5908 17.2177 15.2699 17.4831 14.9428 17.7051C14.4211 18.0678 13.8329 18.4141 13.1763 18.4486C12.5159 18.4863 11.8742 18.2499 11.3188 17.9119C10.8901 17.6548 10.4964 17.3292 10.1068 17.0206C9.76458 16.7466 9.41797 16.4483 9.13646 16.1049C8.4388 15.2581 8.07122 14.1738 8.02109 13.0858C7.96875 12.0034 8.23021 10.9095 8.77904 9.97474C9.19505 9.26419 9.78372 8.64089 10.51 8.24427C11.5073 7.70534 12.781 7.73151 13.7667 8.28073L13.7665 8.28086Z" fill="#400708"/>
<path d="M14.1461 8.93268C13.6979 8.74948 13.2277 8.63112 12.748 8.58138C12.3715 8.54479 11.9816 8.53503 11.6186 8.64961C11.3462 8.73581 11.1035 8.88229 10.8591 9.03346C10.4895 9.25964 10.1432 9.50625 9.86133 9.82539C9.81627 9.87526 9.76966 9.93581 9.72513 9.98685C9.68372 10.0423 9.63945 10.1014 9.59922 10.1565C9.57096 10.2009 9.50859 10.2901 9.48281 10.3332C9.44948 10.3904 9.40742 10.4582 9.37617 10.5159C9.36354 10.5413 9.30521 10.6496 9.29388 10.672C9.09062 11.0848 8.94557 11.5264 8.85299 11.977C8.7957 12.2516 8.75286 12.5398 8.73073 12.8191C8.68242 13.3818 8.75221 13.9313 9 14.4328C9.16029 14.7695 9.37409 15.0841 9.59896 15.3827C9.75469 15.5893 9.91315 15.7744 10.1096 15.9326C10.1389 15.9536 10.187 15.9911 10.2167 16.0124C10.2689 16.046 10.3316 16.0898 10.3866 16.1191C11.5457 16.7811 12.9635 16.3941 14.0533 15.76C14.3628 15.5836 14.6539 15.3924 14.8199 15.0764C14.9396 14.8508 15.002 14.5674 15.0492 14.3072C15.1047 13.9952 15.1333 13.6747 15.0885 13.3637C15.0128 12.8566 14.7872 12.4082 14.5542 11.9397C14.3833 11.601 14.1977 11.2781 13.9572 11.0118C13.3372 10.3316 12.3964 10.0059 11.5009 9.87279C11.4103 9.86159 11.3202 9.85378 11.231 9.85182C11.0564 9.8487 10.8828 9.86497 10.7167 9.9168C10.4598 9.99596 10.2561 10.1526 10.0492 10.3352C9.75273 10.5986 9.49036 10.8957 9.29661 11.2344C8.8332 12.0232 8.91562 13.0073 9.36562 13.7859C9.64713 14.2736 10.0583 14.6749 10.531 14.9835C10.8784 15.2052 11.4081 15.4961 11.8168 15.522C12.1457 15.5426 12.4654 15.4296 12.7702 15.3077C12.8566 15.2719 12.9456 15.2311 13.028 15.187C13.2388 15.0747 13.437 14.9391 13.6202 14.7846C13.8495 14.5918 14.056 14.3674 14.2147 14.1122C14.2311 14.0839 14.2611 14.0307 14.2775 14.0022L14.2854 13.9859L14.3012 13.9533L14.3326 13.8879C14.1146 14.4466 13.6648 14.8891 13.1706 15.2152C13.1009 15.2589 13.0198 15.3063 12.9471 15.3448C12.6806 15.4763 12.4115 15.5943 12.1142 15.6507C11.7529 15.722 11.4126 15.6329 11.0816 15.4913C10.8534 15.3973 10.6323 15.2866 10.4206 15.1583C9.1862 14.4299 8.37018 13.0078 8.79765 11.5703C8.91771 11.1797 9.13568 10.8214 9.39518 10.5092C9.71823 10.1363 10.1219 9.725 10.6044 9.56745C10.906 9.46797 11.2332 9.46029 11.5449 9.49544C12.344 9.60156 13.1362 9.84779 13.7978 10.3242C14.3882 10.7404 14.7518 11.3784 15.056 12.0141C15.2319 12.3755 15.3956 12.7497 15.4766 13.1494C15.5841 13.6579 15.5174 14.1784 15.402 14.6768C15.3335 14.976 15.2135 15.3044 15.0036 15.5491C14.6092 16.0203 13.7464 16.4089 13.1672 16.6165C12.0967 17.0012 10.7868 16.9698 9.87422 16.2227C9.65768 16.0441 9.46875 15.8194 9.30885 15.5988C9.01471 15.1969 8.74362 14.7674 8.57682 14.2934C8.3569 13.6952 8.375 13.0426 8.47552 12.4241C8.55052 11.9621 8.66732 11.5007 8.84258 11.0663C8.87279 10.9861 8.92474 10.8716 8.96042 10.7931C8.96784 10.7766 8.98385 10.7419 8.99245 10.7259C9.01719 10.6784 9.05208 10.6072 9.07708 10.56C9.09284 10.5307 9.15273 10.4275 9.16914 10.3978C9.20377 10.3375 9.25143 10.2676 9.28802 10.2082C9.31732 10.1617 9.38594 10.0707 9.41693 10.025C9.46002 9.96667 9.51185 9.90703 9.55612 9.84935C9.6043 9.79622 9.65742 9.73464 9.70599 9.68229L9.81237 9.57721C9.95469 9.43958 10.1115 9.31276 10.2747 9.2013C10.6046 8.9819 10.937 8.78581 11.2997 8.62396C11.4823 8.54583 11.6789 8.49128 11.8766 8.47044C12.1707 8.43711 12.4665 8.46211 12.7578 8.50495C13.2383 8.57839 13.7099 8.72292 14.1461 8.93281V8.93268Z" fill="#400708"/>
<path d="M18.9208 10.6844C18.3763 11.1549 18.1793 11.9211 18.3255 12.6095C18.4669 13.3411 18.902 13.969 19.3651 14.5424C19.5715 14.7944 19.7716 15.0691 20.0702 15.2142C20.1766 15.2658 20.2943 15.299 20.4212 15.3031C20.3616 15.3247 20.2973 15.3362 20.2319 15.34C19.8948 15.3563 19.5888 15.1639 19.3431 14.9512C18.6592 14.3628 18.0543 13.5951 17.9316 12.6729C17.8956 12.4061 17.9034 12.1322 17.9655 11.8693C18.0874 11.3583 18.4227 10.8753 18.9208 10.6842V10.6844Z" fill="#400708"/>
<path d="M14.6133 10.6844C15.1671 11.3391 15.3461 12.2163 15.6393 12.9958C15.7031 13.1793 15.7634 13.3656 15.8 13.5599C15.857 13.8577 15.851 14.1664 15.8025 14.4647C15.7613 14.7064 15.6937 14.9467 15.6082 15.1764C15.5027 15.4529 15.3881 15.7288 15.2169 15.9737C14.9888 16.3081 14.6719 16.5688 14.3229 16.765C14.0281 16.9332 13.7125 17.0556 13.391 17.1553C13.3001 17.1835 13.2089 17.2094 13.1176 17.2342C12.8581 17.3025 12.5699 17.3793 12.2953 17.3279C12.1884 17.3076 12.0828 17.262 12.0026 17.1928C12.1714 17.2754 12.3585 17.2697 12.5354 17.2264C12.7095 17.1853 12.885 17.1089 13.0503 17.0387C13.3033 16.9316 13.5559 16.8148 13.7975 16.6841C14.1799 16.4725 14.549 16.2108 14.809 15.8546C14.8314 15.8264 14.8596 15.7794 14.8805 15.7495C14.9533 15.6418 15.0083 15.5275 15.0624 15.4069C15.2733 14.9292 15.4484 14.3962 15.4389 13.8785C15.4359 13.6135 15.3736 13.3573 15.3033 13.1009C15.0677 12.29 14.9957 11.4436 14.6137 10.6848L14.6133 10.6844Z" fill="#400708"/>
<path d="M10.7116 16.9747C10.8152 16.9665 10.9099 17.018 11.0057 17.0389C11.1074 17.0626 11.2923 17.096 11.3931 17.1207C11.5458 17.1576 11.7085 17.2022 11.8443 17.2941C11.8008 17.3436 11.753 17.3801 11.6999 17.4142C11.4138 17.5997 10.9703 17.5421 10.7889 17.2365C10.7417 17.1525 10.7305 17.0688 10.7113 16.9746L10.7116 16.9747Z" fill="#400708"/>
<path d="M11.3686 17.4023C11.6592 17.4359 11.9542 17.4598 12.246 17.4482C12.7164 17.4329 13.1871 17.3512 13.6318 17.2065C13.8021 17.1508 13.982 17.0878 14.1372 17.0038C14.294 16.9197 14.4216 16.8038 14.5482 16.6734C14.819 16.3875 15.0951 16.0931 15.4014 15.8419C15.3182 16.0255 15.2214 16.2003 15.1219 16.3742C14.9089 16.7286 14.705 17.1168 14.3432 17.3465C14.1594 17.4645 13.9647 17.5401 13.7611 17.6072C12.9866 17.8566 12.0723 17.8397 11.3688 17.4022L11.3686 17.4023Z" fill="#400708"/>
<path d="M9.92031 11.6941C9.93034 11.0918 10.1634 10.5108 10.4964 10.0139C10.7068 9.7069 10.9522 9.40247 11.2879 9.22695C11.6247 9.0444 12.0077 8.96432 12.3876 8.95742C12.8212 8.95 13.2139 9.04701 13.588 9.26953C14.148 9.61289 14.5419 10.1599 14.8695 10.7143C15.1331 11.1598 15.3629 11.6247 15.7145 12.0038C15.9431 12.252 16.228 12.4352 16.5263 12.5926C16.7288 12.7004 16.9353 12.7997 17.154 12.8667C17.2633 12.9008 17.3742 12.9227 17.4879 12.9395C17.6582 12.9641 17.832 12.9697 17.9967 12.9151C18.0517 12.8969 18.1055 12.8734 18.1577 12.8456C17.9202 13.0512 17.599 13.0728 17.2982 13.0501C16.9947 13.0262 16.7016 12.9279 16.4225 12.8135C16.1973 12.7207 15.9764 12.6137 15.7733 12.4741C15.2116 12.0927 14.8716 11.4828 14.5237 10.9247C14.1741 10.371 13.7663 9.79531 13.1611 9.5125C12.6553 9.27643 11.9431 9.29089 11.4371 9.52135C11.2371 9.61003 11.0698 9.74857 10.9195 9.90534C10.4392 10.4004 10.065 11.0122 9.92005 11.6944L9.92031 11.6941Z" fill="#400708"/>
<path d="M13.1952 14.904C12.9353 15.1668 12.5422 15.2451 12.1863 15.2734C11.9318 15.294 11.6674 15.2868 11.4255 15.1897C11.087 15.0535 10.8523 14.7724 10.6401 14.4945C10.3302 14.085 10.0642 13.6289 9.92904 13.1281C9.83268 12.775 9.79974 12.4062 9.84844 12.0447C9.86328 11.9263 9.8888 11.8091 9.92044 11.6944C9.93594 11.8118 9.94687 11.9272 9.96601 12.0435C10.0917 12.9095 10.5023 13.6251 11.0281 14.3091C11.253 14.6124 11.474 14.8766 11.8617 14.9503C12.0228 14.9846 12.1927 15 12.3582 15.0117C12.6424 15.0302 12.9212 15.0215 13.1956 14.904H13.1952Z" fill="#400708"/>
<path d="M10.1624 11.3349C10.4689 10.5323 11.3792 10.0438 12.2255 10.1565C12.4853 10.1904 12.7228 10.2711 12.9608 10.3617C13.1987 10.453 13.4345 10.5574 13.6467 10.7036C13.9391 10.9023 14.1716 11.1922 14.3263 11.5057C14.5536 11.9592 14.6367 12.4619 14.6776 12.9613C14.7115 13.3867 14.719 13.8643 14.465 14.2311C14.4479 14.2564 14.4257 14.2797 14.4073 14.3038C14.3898 14.3242 14.3605 14.3501 14.343 14.369C14.3535 14.3475 14.3762 14.3096 14.3863 14.2895C14.3983 14.2628 14.4108 14.2342 14.4221 14.2077L14.4415 14.1518C14.5607 13.7771 14.4816 13.377 14.4036 13.0016C14.2781 12.4146 14.1243 11.796 13.7237 11.3337C13.4342 10.9891 13.0023 10.818 12.5923 10.6523C12.3793 10.5701 12.1743 10.5082 11.9509 10.4923C11.269 10.4396 10.5687 10.7822 10.1622 11.3345L10.1624 11.3349Z" fill="#400708"/>
<path d="M8.72591 13.1025C9.14818 14.1174 9.87044 15.2048 10.8559 15.7368C12.1004 16.4022 13.3883 15.763 14.2352 14.7716C14.346 14.6451 14.4517 14.5125 14.5561 14.3768C14.4927 14.5358 14.4168 14.6901 14.3309 14.8397C14.0264 15.3725 13.5858 15.8365 13.0323 16.1238C12.4645 16.4197 11.7792 16.5155 11.1626 16.3178C9.8418 15.9064 8.90534 14.424 8.72604 13.1023L8.72591 13.1025Z" fill="#400708"/>
<path d="M13.2104 10.3074C13.9937 10.7507 14.5952 11.4814 14.9531 12.3027C15.0663 12.5645 15.1536 12.8396 15.1923 13.1233C15.2504 13.5482 15.178 13.9768 15.0751 14.3861C15.0141 14.6193 14.956 14.8708 14.8387 15.0846C14.7201 15.2939 14.5924 15.501 14.4352 15.6842C14.3449 15.7882 14.2431 15.8852 14.1262 15.9573C14.1681 15.9035 14.2066 15.8487 14.2415 15.7922C14.3964 15.5374 14.4969 15.256 14.6008 14.9777C14.6523 14.8284 14.6759 14.6732 14.6996 14.5155C14.7551 14.1237 14.8201 13.7499 14.7958 13.3635C14.7451 12.7335 14.4622 12.1336 14.1561 11.5826C13.893 11.125 13.5648 10.7012 13.2105 10.3076L13.2104 10.3074Z" fill="#400708"/>
<path d="M12.4923 8.95482C12.7478 8.89258 13.0125 8.88073 13.2742 8.89766C13.6927 8.92097 14.1634 9.07149 14.3991 9.45534C14.5983 9.77175 14.6089 10.1553 14.756 10.4902C14.8535 10.729 14.9931 10.9591 15.1547 11.1648C15.2068 11.2307 15.2624 11.2951 15.3197 11.3619C15.153 11.3066 14.9979 11.2161 14.8576 11.1047C14.6809 10.963 14.5307 10.7871 14.4163 10.5911C14.3482 10.4738 14.2893 10.3419 14.2475 10.2159C14.1932 10.0594 14.1555 9.91159 14.0891 9.76537C13.9715 9.4957 13.7266 9.35534 13.452 9.24857C13.1462 9.13216 12.8112 9.04727 12.4923 8.95469V8.95482Z" fill="#400708"/>
<path d="M15.0426 11.59C16.3049 12.8135 16.9706 14.5533 17.1727 16.2776C17.4227 18.4529 16.9703 20.6432 16.3074 22.709C16.0857 23.3952 15.8374 24.0828 15.4522 24.6966C15.7898 23.9027 15.9757 23.062 16.1689 22.2249C16.5473 20.5608 16.8557 18.8682 16.8211 17.1637C16.7909 15.1879 16.2513 13.1781 15.0426 11.59Z" fill="#400708"/>
<path d="M27.6172 20.5711C27.1477 20.5009 26.6779 20.4352 26.204 20.4384C25.9535 20.44 25.7009 20.4587 25.4573 20.5187C25.0949 20.6051 24.749 20.7685 24.4822 21.0286C24.2918 21.2104 24.1569 21.4467 24.0293 21.6766C23.616 22.4453 23.3977 23.3133 23.3867 24.1865L23.3854 24.3254C23.3858 24.3935 23.391 24.4658 23.3926 24.5339C23.3932 24.5954 23.4033 24.6837 23.407 24.7424C23.4095 24.791 23.4158 24.8349 23.4212 24.8815C23.44 25.0638 23.4729 25.2525 23.5204 25.4298C23.5673 25.6117 23.6262 25.791 23.7027 25.9629C23.7413 26.0492 23.7855 26.1332 23.8397 26.2126C23.5415 25.9395 23.3258 25.4538 23.2167 25.0665C23.203 25.0148 23.1755 24.9014 23.163 24.8527C23.1469 24.7695 23.1214 24.6474 23.1092 24.5634C23.0992 24.4914 23.0881 24.4155 23.0803 24.344C23.0763 24.2909 23.065 24.1737 23.0613 24.1233C23.0586 24.0784 23.0562 23.9493 23.0542 23.9016C23.0525 23.8339 23.0555 23.7477 23.0565 23.6794C23.0573 23.5958 23.0699 23.4672 23.0746 23.3835C23.0883 23.262 23.1023 23.1358 23.1249 23.0158C23.1326 22.9714 23.1415 22.9126 23.151 22.8695C23.1714 22.7759 23.193 22.6724 23.2197 22.5801C23.2421 22.496 23.2762 22.3756 23.3046 22.2948C23.3187 22.2529 23.3368 22.1944 23.3531 22.154C23.371 22.1077 23.4168 21.9904 23.4344 21.9457C23.4535 21.9022 23.5053 21.7862 23.5253 21.7413C23.5557 21.6762 23.5943 21.6065 23.6267 21.5417C23.7714 21.2742 23.9319 21.0066 24.1521 20.7921C24.4866 20.4635 24.9366 20.2691 25.3964 20.2004C26.1456 20.0943 26.928 20.2958 27.6176 20.5714L27.6172 20.5711Z" fill="#400708"/>
<path d="M27.5096 23.8757C27.6449 23.9814 27.784 24.0926 27.9483 24.1449C28.109 24.1918 28.2823 24.1794 28.4495 24.171C28.4852 24.1702 28.5417 24.1635 28.5777 24.1602C29.1406 24.1051 29.6831 23.927 30.2257 23.7753C30.5738 23.6781 30.9255 23.587 31.2848 23.5396C31.6491 23.4887 32.0208 23.4896 32.3853 23.5217C33.1905 23.6021 34.0534 23.7415 34.7102 24.2484C34.9267 24.4165 35.1164 24.625 35.2475 24.8661C35.2904 24.9458 35.326 25.0289 35.3544 25.1133C35.2798 25.0027 35.1996 24.9 35.1063 24.8065C34.5897 24.2797 33.8458 24.0826 33.1324 23.9994C32.7911 23.9596 32.4419 23.9264 32.099 23.9195C31.4967 23.8954 30.9113 24.0122 30.3204 24.1495C29.7733 24.2727 29.2165 24.399 28.6521 24.3874C28.5918 24.3842 28.5074 24.3842 28.4467 24.377C28.262 24.3582 28.0734 24.3406 27.9035 24.2531C27.8189 24.2105 27.7482 24.1475 27.6827 24.0818C27.6195 24.0169 27.5612 23.9487 27.5095 23.8759L27.5096 23.8757Z" fill="#400708"/>
<path d="M30.1138 25.001C30.3141 24.8482 30.5194 24.7094 30.7309 24.5727C30.8934 24.4698 31.0771 24.3695 31.2724 24.3242C31.6033 24.2467 31.935 24.3241 32.2581 24.3763C32.9994 24.5125 33.7258 24.7409 34.4085 25.0599C34.7454 25.2152 35.0642 25.3764 35.4219 25.4633C35.5398 25.4914 35.6611 25.51 35.7871 25.5177C35.6672 25.5566 35.5392 25.5757 35.4108 25.5801C34.9307 25.5952 34.4717 25.4234 34.0251 25.2852C33.4137 25.093 32.7974 24.9188 32.1749 24.7664C31.9577 24.7172 31.6999 24.6409 31.4833 24.6237C31.2527 24.6053 31.0413 24.6766 30.8225 24.7573C30.5915 24.8436 30.3508 24.9318 30.1141 25.0012L30.1138 25.001Z" fill="#400708"/>
<path d="M33.5027 26.6964C34.3396 26.7887 35.1124 27.2007 35.8738 27.5339C36.0818 27.6253 36.2904 27.7081 36.5026 27.7919C37.462 28.1599 38.4865 28.6182 38.9042 29.6354L38.9504 29.7507C38.9638 29.7922 38.996 29.8862 39.0074 29.9267C39.0211 29.9819 39.0408 30.0497 39.052 30.1053C39.1022 30.3378 39.1292 30.5857 39.135 30.8234C39.1488 31.4517 39.0566 32.0585 38.9704 32.6743C38.7901 33.8766 38.5559 35.0832 38.3184 36.275C38.2574 36.5736 38.1958 36.8721 38.1314 37.1702C38.0676 37.4674 37.9999 37.7753 37.8527 38.0445C37.9044 37.9008 37.9387 37.753 37.9615 37.6035C37.9853 37.4543 37.9997 37.3036 38.0154 37.1521C38.1643 35.6505 38.3848 34.1188 38.5743 32.6211C38.6408 32.0352 38.7298 31.423 38.7138 30.8349C38.7111 30.6958 38.7001 30.5413 38.6802 30.4036C38.673 30.3434 38.6561 30.2538 38.6439 30.1936C38.635 30.1454 38.6174 30.0874 38.6064 30.0396C38.5974 30.0049 38.5708 29.9243 38.5604 29.8889L38.523 29.7917C38.2298 29.0375 37.4948 28.5965 36.794 28.2645C36.5199 28.1333 36.2404 28.0098 35.9667 27.8734C35.69 27.7358 35.4236 27.5849 35.1577 27.4374C34.6279 27.1409 34.0918 26.8527 33.5025 26.6962L33.5027 26.6964Z" fill="#400708"/>
<path d="M19.2839 23.1885C19.8182 23.3971 20.098 23.9384 20.4742 24.3362C21.263 25.201 22.3297 25.8057 23.4738 26.0332C24.4139 26.2165 25.3768 26.1517 26.3229 26.0346C27.8673 25.8432 29.4452 25.503 30.9983 25.8219C31.0832 25.8419 31.2082 25.8677 31.2908 25.8919C31.4818 25.9431 31.6796 26.0065 31.8632 26.0805C31.9443 26.1103 32.0612 26.1618 32.1405 26.1984C32.1805 26.216 32.2383 26.2426 32.2766 26.263C32.3548 26.3031 32.4684 26.359 32.5428 26.404C33.3289 26.8491 34.009 27.4911 34.4839 28.2609C34.9784 29.0546 35.2465 29.9728 35.5505 30.8466C36.0099 32.1941 36.6799 34.173 37.1312 35.5211C37.1628 35.6167 37.1911 35.7133 37.2167 35.8103C37.5352 37.1197 37.8905 38.4316 38.3033 39.7139C38.6527 40.8199 39.0754 41.8954 39.5012 42.9747C40.0663 44.4245 40.2884 45.9758 40.6246 47.4876C40.5233 47.1139 40.4254 46.7396 40.3256 46.3655C40.1451 45.6814 39.9246 44.787 39.715 44.1301C39.4785 43.3941 39.1536 42.697 38.8507 41.9854C38.0142 40.0223 37.3822 37.9738 36.8495 35.9094C36.8243 35.8197 36.797 35.7307 36.7671 35.6428C36.4736 34.8042 35.8294 32.9421 35.5311 32.0799C35.4038 31.7063 35.0879 30.7922 34.9655 30.4333C34.757 29.8273 34.5457 29.216 34.235 28.6598C34.1835 28.5672 34.1115 28.4527 34.0542 28.3624C34.0335 28.3301 33.9983 28.2799 33.9754 28.2478C33.9309 28.1826 33.8604 28.0867 33.8096 28.0241C33.138 27.1639 32.1777 26.5277 31.1212 26.2487C30.5089 26.0895 29.8651 26.0431 29.2312 26.0609C27.3479 26.1111 25.4516 26.6629 23.5711 26.2833C22.1714 26.0046 20.9039 25.1592 20.0983 23.9875C19.8755 23.6766 19.6415 23.3503 19.2832 23.1885H19.2839Z" fill="#400708"/>
<mask id="mask0_20_1279" style="mask-type:luminance" maskUnits="userSpaceOnUse" x="27" y="22" width="16" height="28">
<path d="M27.4667 22.1H42.0438V49.2667H27.4667V22.1Z" fill="white"/>
</mask>
<g mask="url(#mask0_20_1279)">
<path d="M27.5096 23.8757C27.4283 23.7922 27.557 23.6831 27.6303 23.6456C28.2583 23.3641 28.8956 23.0813 29.5431 22.8469C30.3125 22.5665 31.1105 22.3509 31.9297 22.2745C32.3003 22.2398 32.6789 22.2428 33.0491 22.2501C33.343 22.254 33.6323 22.2576 33.9229 22.234C34.2207 22.2105 34.5001 22.1493 34.8073 22.1307C35.5661 22.0781 35.935 22.4188 36.4758 22.8763C37.3534 23.6201 38.3177 24.4251 39.178 25.1779C39.7826 25.709 40.402 26.2185 40.8745 26.8842C41.6104 27.8858 41.7059 29.177 41.7945 30.3716C41.809 30.5514 41.9892 32.9038 41.9979 33.0238C42.03 33.422 42.0424 33.826 42.0305 34.226C41.921 36.4826 41.9065 38.7538 41.9474 41.0125C41.9557 41.5362 41.9728 42.2599 41.9849 42.7842C41.9952 43.1801 42.0027 43.5789 41.9786 43.9759C41.944 44.5703 41.8499 45.1611 41.7467 45.7448C41.643 46.3158 41.4284 47.4986 41.3211 48.0715C41.2478 48.4587 41.1763 48.8465 41.1016 49.2335C41.2457 48.1618 41.4292 46.7984 41.5839 45.7191C41.6647 45.1357 41.7367 44.5534 41.7531 43.9661C41.7643 43.5751 41.7443 43.1857 41.7242 42.7941C41.5788 40.0366 41.5039 37.2682 41.6142 34.5073C41.6228 34.3147 41.6275 34.1177 41.6262 33.9258C41.6247 33.634 41.61 33.347 41.5849 33.0557C41.4914 32.0882 41.3813 30.1829 41.268 29.2371C41.1768 28.4891 40.9854 27.7371 40.5408 27.1186C40.1008 26.4914 39.494 25.9796 38.9229 25.4673C38.3585 24.9624 36.8478 23.6409 36.2607 23.1262C35.4776 22.4264 35.3117 22.3372 34.243 22.475C33.6495 22.5471 33.0473 22.4814 32.4543 22.4708C31.078 22.4478 29.7436 22.8676 28.466 23.3449C28.2146 23.4406 27.8876 23.5615 27.6376 23.6607C27.594 23.6803 27.5529 23.7083 27.5214 23.7452C27.4938 23.776 27.4741 23.8224 27.498 23.8607L27.5095 23.8751L27.5096 23.8757Z" fill="#400708"/>
</g>
<path d="M27.0107 35.7775C28.3932 35.5014 29.7875 36.2046 30.7108 37.2077C31.3841 37.9155 31.86 38.801 32.3427 39.6428C33.0629 40.9035 33.7587 42.1921 34.3488 43.5194C35.0119 44.9945 35.6298 46.568 36.371 48.0055C36.6411 48.5388 36.9474 49.0689 37.2648 49.5754C37.3542 49.7103 37.4559 49.8633 37.5441 49.9997C37.4553 49.8937 37.3543 49.772 37.2656 49.6642C37.2081 49.5975 37.0563 49.3928 36.9992 49.3184C36.8246 49.0854 36.6579 48.8447 36.5001 48.6007C35.5487 47.1424 34.8382 45.5237 34.1033 43.9507C33.4621 42.5487 32.7348 41.1884 31.9941 39.8366C31.5277 38.988 31.1087 38.1368 30.4841 37.4112C29.6366 36.4007 28.3639 35.6645 27.0105 35.7775H27.0107Z" fill="#400708"/>
<path d="M15.4555 24.6613C14.8482 26.3659 14.3727 28.1202 14.071 29.9047C13.9493 30.6439 13.8245 31.3992 13.9142 32.1473C14.0219 33.056 14.3992 33.9142 14.743 34.7595C15.3207 36.1513 15.6872 37.6283 16.3801 38.9702C16.4188 39.0435 16.5345 39.257 16.5724 39.3283L16.7359 39.6099C16.8156 39.7443 16.91 39.8936 16.9934 40.0257C17.2846 40.4753 17.6169 40.9335 17.9493 41.3539C18.5951 42.1736 19.2994 42.9427 20.0025 43.7181C19.5917 43.3505 19.1879 42.9746 18.7956 42.5872C17.7335 41.5367 16.7428 40.3823 16.0268 39.0638C15.5225 38.1457 15.1751 37.1264 14.8206 36.1431C14.3901 34.8574 13.6987 33.6388 13.5302 32.275C13.5074 32.0818 13.4956 31.8684 13.4978 31.6742C13.5038 31.1104 13.5992 30.555 13.7089 30.0059C13.7615 29.7382 13.8214 29.4596 13.884 29.194C14.2499 27.6352 14.7701 26.1083 15.4557 24.6613H15.4555Z" fill="#400708"/>
<path d="M19.9366 43.6527C20.0845 43.7569 20.2212 43.8805 20.3431 44.0173C20.5262 44.2184 20.6716 44.4414 20.8557 44.6341C21.0374 44.8199 21.2238 45.0133 21.4251 45.1754C21.6991 45.3967 22.0066 45.5411 22.3165 45.7156C22.4345 45.7841 22.5548 45.8525 22.6703 45.9253C23.8224 46.6388 24.8203 47.5673 25.869 48.4098C25.9355 48.462 26.0134 48.5253 26.0786 48.5779C26.1529 48.6353 26.2701 48.7263 26.3439 48.7853C26.4331 48.8521 26.5246 48.9212 26.6122 48.991C26.5096 48.9471 26.4047 48.8987 26.303 48.8513C26.1262 48.7635 25.9341 48.6625 25.7638 48.5634C24.6762 47.9342 23.7021 47.1186 22.6702 46.4191C22.591 46.3669 22.4729 46.2885 22.3943 46.2359C21.997 45.9734 21.556 45.7579 21.2066 45.4228C21.0055 45.2293 20.8357 45.0113 20.6689 44.7893C20.5064 44.5678 20.3904 44.3161 20.2496 44.0871C20.1582 43.9353 20.0531 43.7914 19.9367 43.6526L19.9366 43.6527Z" fill="#400708"/>
</svg>
